<svg viewBox="0 0 1000 1000" xmlns="http://www.w3.org/2000/svg"><g fill="none" fill-rule="evenodd"><path d="m658.33 873.57c-17.318-99.37-46.18-202.04-86.59-308.01h-1.237l-1.237.618c-6.597 2.474-15.462 5.876-26.595 10.205-11.133 4.329-31.955 14.431-62.47 30.31-30.512 15.875-58.757 32.78-84.73 50.716-25.977 17.936-52.984 41.542-81.02 70.817-28.04 29.28-49.27 59.787-63.704 91.54l-9.277-6.803c75.868 61.849 162.04 92.77 258.53 92.77 54.43 0 107.2-10.72 158.33-32.16m-114.42-375.42c-8.659-20.2-19.586-43.09-32.78-68.65-128.23 38.35-266.98 57.52-416.24 57.52-.412 2.886-.618 7.216-.618 12.988 0 51.13 9.07 99.89 27.21 146.27 18.14 46.39 43.707 87.93 76.69 124.63 20.616-36.697 46.08-71.02 76.38-102.98 30.31-31.955 59.684-57.62 88.13-77 28.451-19.379 55.35-36.08 80.71-50.1 25.358-14.02 45.871-23.915 61.54-29.687l22.884-8.04c1.649-.412 4.329-1.134 8.04-2.165 3.711-1.031 6.391-1.959 8.04-2.783m-66.18-131.12c-49.48-87.83-99.78-165.76-150.91-233.79-56.901 26.801-105.14 65.15-144.73 115.04-39.583 49.891-65.972 105.97-79.17 168.23 124.52 0 249.46-16.493 374.8-49.48m423.05 197.3c-86.59-24.74-170.91-30.718-252.96-17.936 35.872 98.55 62.26 195.24 79.17 290.07 45.768-30.924 83.91-69.992 114.42-117.2 30.512-47.21 50.3-98.86 59.38-154.93m-497.88-458.3c-.412 0-.825.206-1.237.618.412-.412.825-.618 1.237-.618m364.91 89.68c-76.28-67.62-165.55-101.43-267.81-101.43-31.34 0-63.29 3.917-95.87 11.751 54.01 70.1 104.73 148.85 152.15 236.26 28.451-10.72 55.25-23.19 80.4-37.419 25.15-14.225 45.05-26.904 59.684-38.04 14.638-11.133 28.14-22.884 40.511-35.25 12.37-12.37 20.1-20.719 23.19-25.05l7.731-10.824m137.92 299.97c-1.237-95.66-31.955-180.19-92.15-253.58l-.618.618c-3.711 4.948-7.628 9.999-11.751 15.15-4.123 5.154-13.09 14.328-26.904 27.523-13.813 13.194-28.451 25.667-43.913 37.419-15.462 11.751-36.08 25.15-61.849 40.2-25.77 15.05-52.881 28.347-81.33 39.893 10.308 21.853 19.379 41.44 27.21 58.757.825 2.474 2.165 6.082 4.02 10.824 1.855 4.742 3.402 8.143 4.639 10.205 14.844-2.062 30.2-3.505 46.08-4.329 15.875-.825 31.03-1.237 45.46-1.237 14.431 0 28.657.309 42.676.928 14.02.618 27.21 1.443 39.583 2.474 12.37 1.031 24.02 2.165 34.945 3.402 10.927 1.237 20.822 2.577 29.688 4.02 8.865 1.443 16.39 2.68 22.575 3.711 6.185 1.031 11.339 1.959 15.462 2.783l6.185 1.237m69.27 4.329c0 86.18-21.235 165.65-63.704 238.43-42.47 72.78-100.09 130.4-172.87 172.87-72.78 42.47-152.25 63.704-238.43 63.704-86.18 0-165.65-21.235-238.43-63.704-72.78-42.47-130.4-100.09-172.87-172.87-42.47-72.78-63.704-152.25-63.704-238.43 0-86.18 21.235-165.65 63.704-238.43 42.47-72.78 100.09-130.4 172.87-172.87 72.78-42.47 152.25-63.704 238.43-63.704 86.18 0 165.65 21.235 238.43 63.704 72.78 42.47 130.4 100.09 172.87 172.87 42.47 72.78 63.704 152.25 63.704 238.43" fill="#000"/></g></svg>