<svg viewBox="0 0 1000 1000" xmlns="http://www.w3.org/2000/svg"><g fill="none" fill-rule="evenodd"><path d="m975 512c0 103.49-30.2 196.58-90.61 279.25-60.41 82.67-138.44 139.88-234.1 171.63-11.133 2.062-19.276.618-24.43-4.329-5.154-4.948-7.731-11.133-7.731-18.555v-130.5c0-39.996-10.72-69.27-32.16-87.83 23.503-2.474 44.634-6.185 63.4-11.133 18.761-4.948 38.14-12.988 58.14-24.12 19.998-11.133 36.697-24.843 50.1-41.13 13.401-16.287 24.327-37.934 32.78-64.941 8.453-27.01 12.679-58.03 12.679-93.08 0-49.891-16.287-92.36-48.861-127.41 15.256-37.522 13.607-79.58-4.948-126.17-11.545-3.711-28.24-1.443-50.1 6.803-21.853 8.247-40.82 17.318-56.901 27.21l-23.503 14.844c-38.35-10.72-77.93-16.08-118.75-16.08-40.82 0-80.4 5.36-118.75 16.08-6.597-4.536-15.359-10.1-26.29-16.699-10.927-6.597-28.14-14.535-51.644-23.812-23.503-9.277-41.23-12.06-53.19-8.35-18.14 46.593-19.586 88.65-4.329 126.17-32.574 35.05-48.861 77.52-48.861 127.41 0 35.05 4.226 65.972 12.679 92.77 8.453 26.801 19.276 48.45 32.471 64.941 13.194 16.493 29.791 30.31 49.788 41.44 19.998 11.133 39.38 19.17 58.14 24.12 18.761 4.948 39.893 8.659 63.4 11.133-16.493 14.844-26.595 36.08-30.31 63.704-8.659 4.123-17.936 7.216-27.832 9.277-9.896 2.062-21.647 3.092-35.25 3.092-13.607 0-27.11-4.433-40.511-13.298-13.401-8.865-24.843-21.75-34.33-38.656-7.834-13.194-17.833-23.915-29.997-32.16-12.164-8.247-22.369-13.194-30.615-14.844l-12.37-1.855c-8.659 0-14.638.928-17.936 2.783-3.299 1.855-4.329 4.226-3.092 7.113 1.237 2.886 3.092 5.773 5.566 8.659 2.474 2.886 5.154 5.36 8.04 7.422l4.329 3.092c9.07 4.123 18.04 11.957 26.904 23.503 8.865 11.545 15.359 22.06 19.482 31.543l6.185 14.225c5.36 15.668 14.431 28.347 27.21 38.04 12.782 9.69 26.595 15.875 41.44 18.555 14.844 2.68 29.17 4.123 42.985 4.329 13.813.206 25.25-.515 34.33-2.165l14.225-2.474c0 15.668.103 34.02.309 55.05.206 21.03.309 32.16.309 33.398 0 7.422-2.68 13.607-8.04 18.555-5.36 4.948-13.607 6.391-24.74 4.329-95.66-31.749-173.69-88.96-234.1-171.63-60.41-82.67-90.61-175.75-90.61-279.25 0-86.18 21.235-165.65 63.704-238.43 42.47-72.78 100.09-130.4 172.87-172.87 72.78-42.47 152.25-63.704 238.43-63.704 86.18 0 165.65 21.235 238.43 63.704 72.78 42.47 130.4 100.09 172.87 172.87 42.47 72.78 63.704 152.25 63.704 238.43" fill="#000"/></g></svg>