<svg viewBox="0 0 1000 1000" xmlns="http://www.w3.org/2000/svg"><g fill="none" fill-rule="evenodd"><path d="m848.05 810.55v-379.69h-79.1c7.813 24.609 11.719 50.2 11.719 76.76 0 49.22-12.5 94.63-37.5 136.23-25 41.602-58.984 74.51-101.95 98.73-42.969 24.22-89.84 36.33-140.63 36.33-76.953 0-142.77-26.465-197.46-79.39-54.688-52.93-82.03-116.89-82.03-191.89 0-26.563 3.906-52.15 11.719-76.76h-82.62v379.69c0 10.156 3.418 18.652 10.254 25.488 6.836 6.836 15.332 10.254 25.488 10.254h626.37c9.766 0 18.16-3.418 25.2-10.254 7.03-6.836 10.547-15.332 10.547-25.488m-166.41-312.3c0-48.44-17.676-89.75-53.03-123.93-35.35-34.18-78.03-51.27-128.03-51.27-49.609 0-92.09 17.09-127.44 51.27-35.35 34.18-53.03 75.49-53.03 123.93 0 48.44 17.676 89.75 53.03 123.93 35.35 34.18 77.83 51.27 127.44 51.27 50 0 92.68-17.09 128.03-51.27 35.35-34.18 53.03-75.49 53.03-123.93m166.41-210.94v-96.68c0-10.938-3.906-20.41-11.719-28.418-7.813-8.01-17.383-12.01-28.711-12.01h-101.95c-11.328 0-20.898 4-28.711 12.01-7.813 8.01-11.719 17.48-11.719 28.418v96.68c0 11.328 3.906 20.898 11.719 28.711 7.813 7.813 17.383 11.719 28.711 11.719h101.95c11.328 0 20.898-3.906 28.711-11.719 7.813-7.813 11.719-17.383 11.719-28.711m101.95-121.87v669.14c0 31.641-11.328 58.789-33.984 81.45-22.656 22.656-49.805 33.984-81.45 33.984h-669.14c-31.641 0-58.789-11.328-81.45-33.984-22.656-22.656-33.984-49.805-33.984-81.45v-669.14c0-31.641 11.328-58.789 33.984-81.45 22.656-22.656 49.805-33.984 81.45-33.984h669.14c31.641 0 58.789 11.328 81.45 33.984 22.656 22.656 33.984 49.805 33.984 81.45" fill="#000"/></g></svg>