<svg viewBox="0 0 1000 1000" xmlns="http://www.w3.org/2000/svg"><g fill="none" fill-rule="evenodd"><path d="m975 201.61c-34.931 15.705-72.54 26.324-111.95 31.13 40.24-24.479 71.15-63.15 85.68-109.26-37.669 22.635-79.36 39.07-123.79 47.897-35.545-38.4-86.18-62.37-142.24-62.37-107.64 0-194.94 88.42-194.94 197.51 0 15.537 1.733 30.571 5.086 45.05-161.97-8.216-305.6-86.91-401.67-206.4-16.823 29.17-26.38 63.1-26.38 99.31 0 68.52 34.428 128.99 86.68 164.37-31.968-1.01-62.04-9.892-88.25-24.703v2.515c0 95.68 67.12 175.49 156.32 193.66-16.375 4.527-33.533 6.93-51.36 6.93-12.519 0-24.759-1.23-36.663-3.577 24.815 78.47 96.8 135.59 182.09 137.21-66.731 52.927-150.79 84.5-242.11 84.5-15.705 0-31.24-.894-46.5-2.739 86.24 56.06 188.68 88.75 298.78 88.75 358.47 0 554.53-300.96 554.53-561.96 0-8.607-.224-17.05-.559-25.541 38.06-27.833 71.15-62.65 97.25-102.22v-.056" fill="#000"/></g></svg>